<svg width="35" height="29" viewBox="0 0 35 29" fill="none" xmlns="http://www.w3.org/2000/svg">
<path d="M29.3536 11.875C29.0879 11.875 28.1973 11.8828 27.9473 11.8984L22.877 12.0312C22.8223 12.0312 22.7676 12.0078 22.7442 11.9609L15.1426 0.578125C14.9161 0.21875 14.5098 0 14.0879 0H12.2364C11.7989 0 11.6504 0.4375 11.8067 0.84375L15.7207 12C15.7598 12.1016 15.6895 12.2109 15.5801 12.2109L6.01762 12.3516C5.8145 12.3594 5.627 12.2656 5.502 12.1094L2.61137 8.59375C2.377 8.28906 2.00981 8.11719 1.627 8.11719H0.314498C0.0957482 8.11719 -0.0526893 8.32812 0.0176232 8.53125L1.57231 13.8984C1.6895 14.1953 1.6895 14.5312 1.57231 14.8281L0.0176232 20.1953C-0.0526893 20.3984 0.0957482 20.6094 0.314498 20.6094H1.61919C2.002 20.6094 2.36919 20.4297 2.60356 20.1328L5.54887 16.5625C5.67387 16.4062 5.86919 16.3125 6.0645 16.3203L15.5723 16.5312C15.6817 16.5391 15.752 16.6406 15.7129 16.7422L11.7989 27.9062C11.6426 28.3125 11.7911 28.75 12.2286 28.75H14.0801C14.5098 28.75 14.9082 28.5312 15.1348 28.1719L22.7442 16.7969C22.7754 16.75 22.8223 16.7266 22.877 16.7266L27.9473 16.8594C28.2051 16.875 29.0879 16.8828 29.3536 16.8828C32.8145 16.8828 35.002 15.7656 35.002 14.3828C35.002 13 32.8223 11.875 29.3536 11.875Z" fill="white"/>
</svg>
